<?xml version="1.0" encoding="UTF-8" standalone="no"?><!DOCTYPE svg PUBLIC "-//W3C//DTD SVG 1.1//EN" "http://www.w3.org/Graphics/SVG/1.1/DTD/svg11.dtd"><svg width="100%" height="100%" viewBox="0 0 750 134" version="1.1" xmlns="http://www.w3.org/2000/svg" xmlns:xlink="http://www.w3.org/1999/xlink" xml:space="preserve" xmlns:serif="http://www.serif.com/" style="fill-rule:evenodd;clip-rule:evenodd;stroke-linejoin:round;stroke-miterlimit:2;"><path id="Shape" d="M545.37,15.071l19.191,60.299l18.554,-60.299l41.864,0l-0,102.566l-24.795,0l0,-74.871l-25.441,74.871l-21.262,0l-23.823,-74.871l0,74.871l-25.121,0l-0,-102.566l40.833,0Zm-251.43,102.566l-0,-102.566l-28.981,0l0,39.865l-32.847,-0l-0,-39.865l-28.988,0l-0,102.566l28.981,0l-0,-40.749l32.847,-0l-0,40.749l28.988,0Zm89.175,0l0,-21.825l-44.402,-0l0,-19.572l37.938,0l0,-20.657l-37.938,-0l0,-19.341l44.417,-0l0,-21.171l-70.206,0l-0,102.566l70.191,0Zm77.02,-69.694c-0,5.341 -4.03,10.415 -10.939,10.415l-20.632,-0l0,-20.799l20.617,-0c6.909,-0 10.939,5.043 10.939,10.414m30.65,69.657l-22.145,-42.862c8.052,-4.04 16.691,-12.84 16.691,-26.825c-0,-16.879 -12.231,-33.028 -34.963,-33.028l-49.308,-0l0,102.655l27.519,0l0,-38.19l14.88,-0l18.13,38.22l29.196,0.03Zm221.292,-20.866l-40.128,0l-6.857,20.903l-27.793,0l34.413,-102.603l37.485,-0l40.818,102.566l-29.864,-0l-8.074,-20.866Zm-33.397,-20.657l25.411,-0l-12.839,-33.319l-0.861,-2.73l-0.742,2.708l-10.969,33.341Z" style="fill:#0067b1;fill-rule:nonzero;"/><path id="Path" d="M47.43,133.333l-27.11,-15.688l20.312,-35.26l-40.632,-0l-0,-31.34l40.64,0l-20.335,-35.357l27.096,-15.688l20.319,35.312l20.365,-35.305l27.132,15.689l-20.334,35.312l40.669,-0l0,31.377l-40.692,-0l20.313,35.26l-27.111,15.688l-20.342,-35.275l-20.29,35.275Z" style="fill:#f6a200;fill-rule:nonzero;"/></svg>
